<?xml version="1.0" standalone="no"?>
<!DOCTYPE svg PUBLIC "-//W3C//DTD SVG 20010904//EN"
 "http://www.w3.org/TR/2001/REC-SVG-20010904/DTD/svg10.dtd">
<svg version="1.0" xmlns="http://www.w3.org/2000/svg"
 width="360.000000pt" height="360.000000pt" viewBox="0 0 360.000000 360.000000"
 preserveAspectRatio="xMidYMid meet">

<g transform="translate(0.000000,360.000000) scale(0.100000,-0.100000)"
fill="#000000" stroke="none">
<path d="M1680 2463 c-326 -31 -613 -144 -887 -349 -119 -90 -333 -294 -333
-319 0 -23 215 -233 320 -311 289 -217 563 -326 895 -356 287 -26 574 32 850
170 193 96 371 229 533 396 l93 96 -29 38 c-36 44 -165 169 -242 234 -135 113
-333 230 -505 298 -202 80 -489 123 -695 103z m270 -160 c269 -74 435 -348
375 -619 -42 -192 -176 -335 -375 -399 -80 -26 -215 -25 -305 3 -225 69 -378
275 -378 507 0 148 48 263 157 371 142 142 331 191 526 137z"/>
<path d="M1705 1968 c-93 -54 -130 -168 -83 -257 13 -25 40 -58 61 -75 31 -25
49 -31 102 -34 82 -5 140 21 181 80 25 36 29 50 29 113 0 82 -21 123 -84 165
-53 35 -152 39 -206 8z"/>
</g>
</svg>
